HIERARCHY
ROOT Hips
{
	OFFSET 0.00000 0.00000 0.00000
	CHANNELS 6 Xposition Yposition Zposition Zrotation Yrotation Xrotation 
	JOINT LHipJoint
	{
		OFFSET 0 0 0
		CHANNELS 3 Zrotation Yrotation Xrotation
		JOINT LeftUpLeg
		{
			OFFSET 1.28858 -1.83292 1.03970
			CHANNELS 3 Zrotation Yrotation Xrotation
			JOINT LeftLeg
			{
				OFFSET 2.47846 -6.80952 0.00000
				CHANNELS 3 Zrotation Yrotation Xrotation
				JOINT LeftFoot
				{
					OFFSET 2.75274 -7.56311 0.00000
					CHANNELS 3 Zrotation Yrotation Xrotation
					JOINT LeftToeBase
					{
						OFFSET 0.12848 -0.35301 1.68223
						CHANNELS 3 Zrotation Yrotation Xrotation
						End Site
						{
							OFFSET 0.00000 -0.00000 0.87311
						}
					}
				}
			}
		}
	}
	JOINT RHipJoint
	{
		OFFSET 0 0 0
		CHANNELS 3 Zrotation Yrotation Xrotation
		JOINT RightUpLeg
		{
			OFFSET -1.31183 -1.83292 1.03970
			CHANNELS 3 Zrotation Yrotation Xrotation
			JOINT RightLeg
			{
				OFFSET -2.44740 -6.72417 0.00000
				CHANNELS 3 Zrotation Yrotation Xrotation
				JOINT RightFoot
				{
					OFFSET -2.67343 -7.34519 0.00000
					CHANNELS 3 Zrotation Yrotation Xrotation
					JOINT RightToeBase
					{
						OFFSET -0.16914 -0.46471 1.77626
						CHANNELS 3 Zrotation Yrotation Xrotation
						End Site
						{
							OFFSET -0.00000 -0.00000 0.92777
						}
					}
				}
			}
		}
	}
	JOINT LowerBack
	{
		OFFSET 0 0 0
		CHANNELS 3 Zrotation Yrotation Xrotation
		JOINT Spine
		{
			OFFSET 0.01249 2.14252 0.03842
			CHANNELS 3 Zrotation Yrotation Xrotation
			JOINT Spine1
			{
				OFFSET -0.02957 2.14199 -0.03751
				CHANNELS 3 Zrotation Yrotation Xrotation
				JOINT Neck
				{
					OFFSET 0 0 0
					CHANNELS 3 Zrotation Yrotation Xrotation
					JOINT Neck1
					{
						OFFSET -0.01678 1.65709 -0.05476
						CHANNELS 3 Zrotation Yrotation Xrotation
						JOINT Head
						{
							OFFSET 0.07912 1.58331 -0.11843
							CHANNELS 3 Zrotation Yrotation Xrotation
							End Site
							{
								OFFSET 0.03298 1.73940 -0.04271
							}
						}
					}
				}
				JOINT LeftShoulder
				{
					OFFSET 0 0 0
					CHANNELS 3 Zrotation Yrotation Xrotation
					JOINT LeftArm
					{
						OFFSET 3.39556 1.16496 0.08673
						CHANNELS 3 Zrotation Yrotation Xrotation
						JOINT LeftForeArm
						{
							OFFSET 5.23910 -0.00000 -0.00000
							CHANNELS 3 Zrotation Yrotation Xrotation
							JOINT LeftHand
							{
								OFFSET 3.31467 -0.00000 0.00000
								CHANNELS 3 Zrotation Yrotation Xrotation
								JOINT LeftFingerBase
								{
									OFFSET 0 0 0
									CHANNELS 3 Zrotation Yrotation Xrotation
									JOINT LeftHandIndex1
									{
										OFFSET 0.96590 -0.00000 0.00000
										CHANNELS 3 Zrotation Yrotation Xrotation
										End Site
										{
											OFFSET 0.77873 -0.00000 0.00000
										}
									}
								}
								JOINT LThumb
								{
									OFFSET 0 0 0
									CHANNELS 3 Zrotation Yrotation Xrotation
									End Site
									{
										OFFSET 0.79062 -0.00000 0.79062
									}
								}
							}
						}
					}
				}
				JOINT RightShoulder
				{
					OFFSET 0 0 0
					CHANNELS 3 Zrotation Yrotation Xrotation
					JOINT RightArm
					{
						OFFSET -3.27193 1.31331 0.33940
						CHANNELS 3 Zrotation Yrotation Xrotation
						JOINT RightForeArm
						{
							OFFSET -5.30252 -0.00000 0.00000
							CHANNELS 3 Zrotation Yrotation Xrotation
							JOINT RightHand
							{
								OFFSET -3.67875 -0.00000 0.00000
								CHANNELS 3 Zrotation Yrotation Xrotation
								JOINT RightFingerBase
								{
									OFFSET 0 0 0
									CHANNELS 3 Zrotation Yrotation Xrotation
									JOINT RightHandIndex1
									{
										OFFSET -0.59481 -0.00000 0.00000
										CHANNELS 3 Zrotation Yrotation Xrotation
										End Site
										{
											OFFSET -0.47955 -0.00000 0.00000
										}
									}
								}
								JOINT RThumb
								{
									OFFSET 0 0 0
									CHANNELS 3 Zrotation Yrotation Xrotation
									End Site
									{
										OFFSET -0.48687 -0.00000 0.48687
									}
								}
							}
						}
					}
				}
			}
		}
	}
}
MOTION
Frames: 11
Frame Time: .0083333
9.5502 16.9236 -12.1059 -409.8610 41.3995 464.2840 0.0000 0.0000 0.0000 9.3001 52.6598 -80.0452 0.0025 -0.3226 -0.8863 -1.6493 22.5671 -3.2564 8.9554 16.7789 55.9358 0.0000 0.0000 0.0000 11.9981 1.8001 18.6635 -0.1849 -2.7693 7.6371 7.9308 -45.5828 -3.1765 -4.9267 -13.3008 40.5052 -1.5994 -4.0389 1.2464 -10.4319 -5.7834 -2.0090 -9.9001 -2.9692 -3.7704 0.1814 -7.0040 -2.0009 3.5242 -10.1900 -29.2715 1.8098 -5.1114 -8.6303 0.0000 0.0000 0.0000 68.3217 -48.7018 -98.1873 11.1240 -18.4781 -1.8150 -0.0000 -0.0000 10.7122 76.4624 -30.2939 -64.4844 -7.1250 0.0000 -0.0000 24.7117 -33.9442 -36.1119 0.0000 0.0000 0.0000 -40.3346 30.1458 -68.4219 -23.8203 34.9737 -7.6033 0.0000 0.0000 10.4343 -43.2437 -36.7291 29.3555 7.1250 -0.0000 -0.0000 -18.0944 -75.0450 12.9076
9.5736 16.9671 -11.7266 -409.3740 42.5762 465.3460 0.0000 0.0000 0.0000 46.1172 34.4766 -41.6151 0.1627 -2.5990 -7.1643 2.6892 4.8648 -32.9821 8.8736 16.7257 55.6518 0.0000 0.0000 0.0000 11.1848 2.9918 20.2266 -0.1868 -2.7834 7.6763 7.9168 -45.3521 -3.8442 -4.9729 -13.3532 40.7053 -2.0095 -4.2002 1.4537 -10.5606 -6.0328 -2.0766 -9.7742 -3.0789 -3.9739 2.4092 -7.3106 -2.1052 0.7641 -11.2803 -29.5686 0.6117 -5.5363 -9.0344 -0.0000 -0.0000 0.0000 63.8250 -48.7302 -89.3272 13.2141 -21.6001 -2.5315 -0.0000 -0.0000 6.2560 76.2506 -30.1723 -64.0413 -7.1250 0.0000 -0.0000 24.6211 -33.5728 -35.9446 -0.0000 -0.0000 0.0000 -39.1416 29.1768 -67.4997 -24.0510 35.2181 -7.7359 0.0000 0.0000 12.4511 -43.7134 -36.8824 29.8475 7.1250 -0.0000 -0.0000 -19.2011 -75.3603 13.8366
9.6061 17.0068 -11.3402 -408.9130 43.6709 466.1650 0.0000 0.0000 0.0000 63.4266 5.7478 -24.4623 0.2749 -3.3727 -9.3182 10.5418 -11.7003 -61.4531 8.9613 16.7827 55.9561 0.0000 0.0000 0.0000 10.2863 3.9775 21.7586 -0.1931 -2.8299 7.8056 7.8655 -45.0350 -4.5477 -4.8225 -13.1810 40.0500 -2.7457 -4.3339 2.0733 -10.6344 -6.2861 -2.1379 -9.3662 -3.1751 -4.3605 1.6215 -7.8085 -2.5305 0.9324 -11.9741 -28.8970 0.7921 -5.7957 -8.6651 0.0000 -0.0000 0.0000 62.6005 -48.4698 -86.2267 14.0313 -22.7795 -2.8402 -0.0000 -0.0000 5.0526 76.5009 -30.0902 -64.4140 -7.1250 0.0000 -0.0000 24.8209 -33.7985 -36.2809 0.0000 -0.0000 0.0000 -38.2120 28.0781 -66.4180 -24.2328 35.4094 -7.8410 0.0000 0.0000 14.1913 -43.9093 -36.6878 29.9045 7.1250 -0.0000 -0.0000 -19.6616 -75.2125 14.1133
9.6448 17.0405 -10.9482 -408.6700 44.8846 466.5660 0.0000 0.0000 0.0000 75.1280 -28.3636 -14.8672 0.3339 -3.7137 -10.2725 21.7874 -25.2428 -95.2098 9.0198 16.8204 56.1585 0.0000 0.0000 0.0000 9.3650 4.6657 23.2736 -0.1982 -2.8665 7.9072 7.6591 -44.5558 -4.5594 -4.6707 -13.0030 39.3798 -3.6384 -4.4251 3.0233 -10.5771 -6.5196 -2.1900 -8.6998 -3.2472 -4.8825 2.4344 -8.4157 -2.1297 0.4334 -13.0655 -29.3880 0.6144 -6.3049 -9.0201 0.0000 -0.0000 0.0000 61.2512 -48.2179 -83.7028 14.8206 -23.8956 -3.1529 -0.0000 -0.0000 4.5074 76.6570 -30.0876 -64.6805 -7.1250 0.0000 -0.0000 24.9266 -33.9866 -36.4623 0.0000 -0.0000 0.0000 -37.1507 27.0929 -65.3571 -24.6381 35.8318 -8.0771 0.0000 0.0000 15.7640 -44.2630 -36.6006 30.1604 7.1250 -0.0000 -0.0000 -20.5035 -75.2297 14.7360
9.6872 17.0671 -10.5585 -408.5520 46.1342 466.8890 0.0000 0.0000 0.0000 69.6479 -13.4994 -19.4015 0.1195 -2.2288 -6.1385 14.4531 -14.7603 -73.6351 8.7093 16.6169 55.0791 0.0000 0.0000 0.0000 8.4781 5.3506 24.6749 -0.1955 -2.8473 7.8538 7.4499 -43.8997 -5.1665 -4.4802 -12.7734 38.5260 -4.5177 -4.4706 3.9287 -10.4674 -6.7072 -2.2764 -7.9938 -3.2909 -5.3994 1.5454 -8.8641 -2.1323 1.1206 -13.5885 -29.1253 0.9999 -6.5207 -8.8132 0.0000 0.0000 0.0000 61.4950 -48.1010 -83.5927 15.0897 -24.2709 -3.2627 -0.0000 -0.0000 5.2148 76.7437 -30.2574 -64.9423 -7.1250 0.0000 -0.0000 24.9150 -34.2519 -36.4570 0.0000 0.0000 0.0000 -35.8792 26.3484 -64.6554 -25.3547 36.5644 -8.5003 0.0000 0.0000 17.6120 -44.5219 -36.5845 30.3764 7.1250 -0.0000 -0.0000 -21.1298 -75.2933 15.2230
9.7197 17.0941 -10.1998 -408.3300 47.5341 468.2850 0.0000 0.0000 0.0000 66.5947 -5.8249 -22.2476 0.0189 -0.8882 -2.4414 10.2654 -3.5840 -61.3257 8.6408 16.5709 54.8394 0.0000 0.0000 0.0000 7.5978 6.2530 25.0665 -0.1817 -2.7458 7.5717 7.6449 -44.0038 -6.5846 -4.2637 -12.5033 37.5364 -4.8291 -4.4997 3.5797 -10.3581 -6.7577 -2.5793 -7.7131 -3.2998 -5.4782 0.5953 -9.2957 -2.1914 1.7376 -14.0985 -28.8446 1.3575 -6.7167 -8.5834 0.0000 0.0000 0.0000 61.2566 -48.1769 -82.9144 15.6534 -25.0484 -3.4979 -0.0000 -0.0000 5.6028 76.9445 -30.3258 -65.3324 -7.1250 0.0000 -0.0000 25.0219 -34.5607 -36.6449 0.0000 0.0000 0.0000 -34.2937 25.5702 -63.9314 -26.3408 37.5432 -9.0945 0.0000 0.0000 19.1209 -44.9447 -36.5442 30.7228 7.1250 -0.0000 -0.0000 -22.1626 -75.3811 16.0232
9.7495 17.1144 -9.8452 -407.9850 49.1476 470.0040 0.0000 0.0000 0.0000 65.4947 -4.5837 -22.4630 0.0023 -0.3093 -0.8499 8.1718 3.3094 -55.6358 8.4184 16.4185 54.0562 0.0000 0.0000 0.0000 6.9299 7.1627 25.2820 -0.1522 -2.5143 6.9293 8.0013 -44.4138 -8.3797 -4.1707 -12.3841 37.1046 -4.7994 -4.5073 2.8597 -10.2674 -6.7226 -2.8705 -7.6815 -3.2848 -5.3643 0.6350 -9.6403 -2.5471 1.7448 -14.5921 -28.5789 1.3471 -6.9477 -8.4320 0.0000 0.0000 0.0000 61.3823 -48.2568 -82.3982 16.1285 -25.6945 -3.7015 -0.0000 -0.0000 5.9831 77.0209 -30.2182 -65.3945 -7.1250 0.0000 -0.0000 25.1185 -34.5547 -36.8014 0.0000 0.0000 0.0000 -33.1012 24.8877 -63.5960 -26.8495 38.0353 -9.4062 0.0000 0.0000 20.0437 -45.9036 -36.4095 31.4906 7.1250 -0.0000 -0.0000 -24.5456 -75.5279 17.8634
9.7779 17.1269 -9.4965 -407.7890 50.6894 471.6290 0.0000 0.0000 0.0000 64.4465 -4.0907 -22.2721 0.0005 0.1506 0.4136 6.8530 5.6103 -51.6283 8.2504 16.3004 53.4598 0.0000 0.0000 0.0000 5.8831 7.8626 25.3406 -0.1173 -2.2080 6.0809 8.2979 -44.7612 -9.9099 -4.2788 -12.5224 37.6062 -4.8168 -4.5532 2.0183 -10.2466 -6.7364 -3.1926 -7.7066 -3.2928 -5.2244 0.9108 -9.8775 -2.9140 1.7372 -14.9141 -28.3026 1.2854 -7.1250 -8.2958 -0.0000 0.0000 0.0000 61.7441 -48.2474 -81.7802 16.4226 -26.0903 -3.8299 -0.0000 -0.0000 6.2954 77.0666 -30.2209 -65.4755 -7.1250 0.0000 -0.0000 25.1486 -34.6135 -36.8529 -0.0000 0.0000 0.0000 -32.1284 24.4701 -63.4225 -27.0393 38.2166 -9.5234 0.0000 0.0000 20.5694 -46.7654 -36.4002 32.2587 7.1250 -0.0000 -0.0000 -26.7999 -75.7733 19.6869
9.8070 17.1307 -9.1517 -407.5910 52.2298 473.1980 0.0000 0.0000 0.0000 63.4110 -4.1831 -21.7339 0.0047 0.4428 1.2168 6.2358 5.7925 -49.3969 8.3278 16.3551 53.7350 0.0000 0.0000 0.0000 4.5701 8.2369 25.2151 -0.0842 -1.8712 5.1498 8.6352 -45.1534 -11.7666 -4.4353 -12.7181 38.3223 -4.8303 -4.6228 1.2337 -10.1198 -6.7941 -3.5859 -7.6096 -3.3212 -5.1836 0.3542 -10.1902 -3.0212 2.4208 -15.1986 -27.9466 1.5735 -7.2771 -8.0483 0.0000 -0.0000 0.0000 60.9891 -48.0945 -79.7444 16.9549 -26.7982 -4.0670 -0.0000 -0.0000 5.8419 77.2172 -30.4258 -65.8675 -7.1250 0.0000 -0.0000 25.1653 -34.9870 -36.8957 0.0000 -0.0000 0.0000 -31.2221 24.1996 -63.0286 -27.3829 38.5419 -9.7367 0.0000 0.0000 20.9503 -47.2263 -36.5709 32.7822 7.1250 -0.0000 -0.0000 -28.1453 -76.0894 20.8879
9.8375 17.1275 -8.8056 -407.2740 53.8460 474.8410 0.0000 0.0000 0.0000 62.7037 -5.5719 -20.4044 0.0031 0.3611 0.9922 6.3261 5.1391 -49.5208 8.4178 16.4181 54.0539 0.0000 0.0000 0.0000 3.4231 8.6411 25.0307 -0.0566 -1.5347 4.2214 9.0468 -45.6664 -13.9783 -4.5470 -12.8547 38.8270 -4.7621 -4.6512 0.4400 -9.8841 -6.7854 -3.9601 -7.4452 -3.3195 -5.1036 0.6416 -10.7037 -2.9827 2.6657 -15.9211 -27.7868 1.6422 -7.6681 -7.9995 -0.0000 -0.0000 0.0000 60.0420 -47.9097 -77.6580 17.5507 -27.5781 -4.3392 -0.0000 -0.0000 5.2898 77.2893 -30.7562 -66.1992 -7.1250 0.0000 -0.0000 25.0737 -35.3751 -36.7620 -0.0000 -0.0000 0.0000 -30.2611 23.7963 -62.3914 -27.8891 39.0139 -10.0538 0.0000 0.0000 21.2203 -47.8995 -36.4825 33.3457 7.1250 -0.0000 -0.0000 -29.9700 -76.1840 22.3466
9.8693 17.1213 -8.4654 -406.7960 55.6919 476.5320 0.0000 0.0000 0.0000 62.5347 -9.1364 -17.8004 0.0007 -0.1660 -0.4560 7.3561 2.7445 -52.6196 8.5702 16.5231 54.5916 0.0000 0.0000 0.0000 2.8078 9.4022 24.9964 -0.0366 -1.2342 3.3935 9.3330 -45.8553 -17.7166 -5.0185 -13.4046 40.9027 -4.4795 -4.6708 -0.3191 -9.6321 -6.7578 -4.2767 -7.3837 -3.3180 -5.0026 -0.0864 -10.8048 -3.6793 3.1150 -15.8724 -26.9525 1.7895 -7.6411 -7.4940 -0.0000 0.0000 0.0000 59.2269 -47.6136 -75.4826 18.2153 -28.4320 -4.6513 -0.0000 -0.0000 4.7241 77.2137 -30.7070 -66.0386 -7.1250 0.0000 -0.0000 25.0433 -35.2386 -36.7078 -0.0000 0.0000 0.0000 -29.0503 23.3492 -61.6519 -28.3863 39.4695 -10.3683 0.0000 0.0000 21.4675 -48.5466 -36.3097 33.8379 7.1250 -0.0000 -0.0000 -31.6866 -76.1766 23.6713
